<?xml version="1.0" encoding="utf-8"?>
<!-- Generator: Adobe Illustrator 19.1.0, SVG Export Plug-In . SVG Version: 6.00 Build 0)  -->
<svg version="1.1" id="Layer_1" xmlns="http://www.w3.org/2000/svg" xmlns:xlink="http://www.w3.org/1999/xlink" x="0px" y="0px"
	 viewBox="0 0 540.1 505.4" style="enable-background:new 0 0 540.1 505.4;" xml:space="preserve">
<style type="text/css">
	.st0{fill:#ECB98F;stroke:#000000;stroke-width:6;stroke-miterlimit:10;}
	.st1{fill:#F7F5F5;stroke:#000000;stroke-miterlimit:10;}
	.st2{fill:#FFFFFF;}
	.st3{fill:#E87DAE;}
	.st4{fill:#ECE5EE;}
	.st5{fill:#99569F;}
	.st6{fill:#6B6CB0;stroke:#070606;stroke-width:5;stroke-miterlimit:10;}
	.st7{fill:none;stroke:#070606;stroke-width:5;stroke-miterlimit:10;}
	.st8{fill:#9C4F24;stroke:#070606;stroke-width:5;stroke-miterlimit:10;}
</style>
<path class="st0" d="M412.8,238.5c0,75.5-61.2,136.6-136.6,136.6s-136.6-61.2-136.6-136.6S206.6,3,282.1,3S412.8,163,412.8,238.5z"
	/>
<g>
	<path d="M244.4,163c0,6.5-5.8,15-12.9,15s-12.9-8.5-12.9-15s5.8-22.3,12.9-22.3C238.6,140.7,244.4,156.5,244.4,163z"/>
	<circle class="st1" cx="227.5" cy="159.4" r="6"/>
	<circle class="st2" cx="230.5" cy="169" r="3"/>
</g>
<g>
	<path d="M337.7,163c0,6.5-5.8,15-12.9,15s-12.9-8.5-12.9-15s5.8-22.3,12.9-22.3S337.7,156.5,337.7,163z"/>
	<circle class="st1" cx="320.9" cy="159.4" r="6"/>
	<circle class="st2" cx="323.9" cy="169" r="3"/>
</g>
<path class="st3" d="M311.9,229.7c0,14.2-13.6,25.7-30.3,25.7c-16.8,0-30.3-11.5-30.3-25.7s9.9-8.3,26.7-8.3
	C294.6,221.4,311.9,215.5,311.9,229.7z"/>
<ellipse class="st4" cx="4.7" cy="153.7" rx="4.7" ry="4.3"/>
<g>
	<path class="st5" d="M256.7,294.5c0,13.1-18.7,23.6-31.3,23.6s2.3-10.6,2.3-23.6s-14.8-23.6-2.3-23.6S256.7,281.5,256.7,294.5z"/>
	<path class="st5" d="M306.9,293.9c-0.4-13,18.1-24.1,30.6-24.5s-2,10.6-1.6,23.7s15.5,23.2,2.9,23.6
		C326.2,317,307.2,307,306.9,293.9z"/>
	<g>
		<ellipse class="st5" cx="281.5" cy="296.9" rx="26.3" ry="24.8"/>
		<ellipse class="st4" cx="274.3" cy="280.2" rx="3.9" ry="4.2"/>
		<ellipse class="st4" cx="273.6" cy="295.8" rx="3.3" ry="3.3"/>
		<ellipse class="st4" cx="279.9" cy="306.1" rx="3.3" ry="3.3"/>
		<ellipse class="st4" cx="284.5" cy="293.4" rx="4.7" ry="4.3"/>
		<ellipse class="st4" cx="296.2" cy="288.2" rx="3.7" ry="3.5"/>
		<ellipse class="st4" cx="294.1" cy="296.3" rx="3.3" ry="2.8"/>
		<ellipse class="st4" cx="298.4" cy="306.1" rx="3.9" ry="4.3"/>
		<ellipse class="st4" cx="288.5" cy="312.7" rx="4" ry="3.3"/>
		<ellipse class="st4" cx="276.9" cy="316.4" rx="4.7" ry="4.3"/>
		<ellipse class="st4" cx="289.2" cy="280.4" rx="4.7" ry="4.3"/>
		<ellipse class="st4" cx="265.7" cy="306.1" rx="4.7" ry="4.3"/>
		<ellipse class="st4" cx="263.3" cy="290.4" rx="4.7" ry="4.3"/>
	</g>
</g>
<path class="st6" d="M63.1,196.8c-11.1-5-23.8-6.5-35.8-4.1c-1.1,0.2-2.3,0.4-3.2-0.1c-0.8-0.4-1.3-1.2-1.7-2
	c-1.4-2.6-2.9-5.1-4.3-7.7c-0.6-1.1-1.3-2.4-0.9-3.7c0.2-0.7,0.7-1.2,1.1-1.7c8-8.6,23.2-9.1,31.8-1.1
	c-10.2-8.1-20.8-17.5-27.1-28.8c-0.9-1.6-1.7-3.2-1.9-5.1c-0.6-6.4,8-10.4,14-7.9s9.2,8.9,11.6,14.9s4.6,12.5,9.5,16.6
	c-9.2-11-14.8-26.1-15-40.4c4-3.4,9.2-7.1,14-4.9c1.7,0.8,3,2.1,4.2,3.5c8.1,9.6,12.4,22.3,11.9,34.9c-7.1-6.3-10.3-16.8-9.2-26.3
	c0.5-4.4,2.1-8.9,5.3-12c3.2-3.1,8.4-4.4,12.4-2.4c2.3,1.2,4,3.2,5.3,5.5c4.8,8.6,3.6,19.1,2.3,28.8c2-6.9,6.6-9.5,12.7-13.4
	c3.6,4.2,7.5,9.4,6,14.7c-0.5,1.8-1.7,3.4-2.8,4.9c-2.6,3.6-5.1,7.1-7.7,10.7c3.5,3.6,2.5,11.4-0.3,15.6c-0.8,1.2-2.1,2-3.3,2.8
	c-9,5.8-18.8,11.9-29.5,11.6c0.3,3.9-0.2,11.4,0.1,15.3c0.2,2.8,0.5,6,2.8,7.7c2.7,2.1,6.7,1,9.9-0.3c8.8-3.4,17.9-7,24.1-14
	c6.2-7,8.4-18.6,2.2-25.7c-2.5,2.2-6,3.2-9.2,2.6"/>
<path class="st6" d="M497.2,293.5c9.5,7.7,21.4,12.3,33.6,13c1.1,0.1,2.3,0.1,3.1,0.9c0.7,0.6,0.9,1.5,1.2,2.4
	c0.7,2.8,1.5,5.7,2.2,8.5c0.3,1.3,0.6,2.7,0,3.8c-0.4,0.6-0.9,1-1.5,1.4c-9.9,6.4-24.8,3.1-31.1-6.9c7.8,10.4,15.8,22.1,19,34.7
	c0.5,1.8,0.9,3.6,0.6,5.4c-1,6.4-10.4,8.1-15.5,4.2c-5.1-4-6.7-10.9-7.5-17.3c-0.8-6.4-1.3-13.2-5.1-18.4c6.1,12.9,7.8,29,4.4,42.9
	c-4.7,2.3-10.7,4.5-14.8,1.3c-1.4-1.1-2.3-2.8-3.1-4.5c-5.4-11.3-6.5-24.7-2.8-36.8c5.4,7.9,5.7,18.8,2.4,27.7
	c-1.6,4.2-4.2,8.1-8.1,10.3c-3.9,2.2-9.2,2.1-12.6-0.8c-1.9-1.7-3.1-4.1-3.7-6.6c-2.5-9.5,1.2-19.4,4.9-28.5
	c-3.6,6.2-8.8,7.6-15.6,9.8c-2.5-4.9-5-11-2.1-15.7c1-1.6,2.4-2.9,3.9-4.1c3.4-2.8,6.8-5.6,10.1-8.4c-2.5-4.4,0.4-11.7,4.2-15
	c1.1-0.9,2.5-1.4,3.9-1.9c10.2-3.4,21.2-6.8,31.5-3.9c0.7-3.8,3-11,3.7-14.8c0.5-2.8-8.7-8.2-10.4-10.4c-2.1-2.8,3.5-0.4,0,0
	c-9.3,1.1-19.1,2.3-26.8,7.6c-7.8,5.3-12.8,15.9-8.6,24.3c2.9-1.5,6.6-1.6,9.6-0.2"/>
<path class="st7" d="M78.3,224.4c16.1,19.2,36.9,34.3,60.2,43.6"/>
<path class="st7" d="M93.1,213.2c14.8,1.5,29.4,11.8,43.3,6.7"/>
<path class="st7" d="M413.9,229.2c23.1,5.2,43,22.8,51,45"/>
<g>
	<path class="st7" d="M211.6,358.9c-14.2,18.9-20.8,50.8-18,74.3"/>
	<path class="st7" d="M229.9,370.9c-7.1,20-10.6,41.2-10.3,62.4"/>
	<path class="st8" d="M228.6,468.5c0.2,11.7-2.6,22.9-6.9,33.8c-28,1.5-55.6,0.3-83.6-2c-1.4-12.9-2-28,7.7-36.7
		c11.1-9.9,20.5-1.8,31.2,2.4c10.1,3.9,21.1,2.5,31.9,2.5c7.9,0,16-0.1,23.1-3.5c3.5-1.7,6.7-4.3,8.5-7.8c1.8-3.5,2-7.6,2-11.5
		c0-5.5-1.3-12-6.4-14c-1.7-0.7-3.6-0.7-5.4-0.7c-6.6,0-13.3,0-19.9-0.1c-4.3,0-8.5,0-12.7,0.8c-8.1,1.6-16.2,6.3-24,3.5
		c-3.1,7.9-2.1,21.9,0.1,30.1"/>
</g>
<g>
	<path class="st7" d="M344.6,356.8c14.2,18.9,28.7,49.2,25.9,72.7"/>
	<path class="st7" d="M334.3,362.2c7.1,20,10.6,46.2,10.3,67.4"/>
	<path class="st8" d="M335.6,464.8c-0.2,11.7,2.6,22.9,6.9,33.8c28,1.5,55.6,0.3,83.6-2c1.4-12.9,2-28-7.7-36.7
		c-11.1-9.9-20.5-1.8-31.2,2.4c-10.1,3.9-21.1,2.5-31.9,2.5c-7.9,0-16-0.1-23.1-3.5c-3.5-1.7-6.7-4.3-8.5-7.8c-1.8-3.5-2-7.6-2-11.5
		c0-5.5,1.3-12,6.4-14c1.7-0.7,3.6-0.7,5.4-0.7c6.6,0,13.3,0,19.9-0.1c4.3,0,8.5,0,12.7,0.8c8.1,1.6,16.2,6.3,24,3.5
		c3.1,7.9,2.1,21.9-0.1,30.1"/>
</g>
<path class="st7" d="M406.9,185.7c7.5-1.9,14.3,4.5,19.4,10.3c6.7,7.7,13.5,15.3,20.2,23c2.8,3.2,5.7,6.5,8.5,9.7
	c10.1,11.6,19.9,23.4,29.4,35.4"/>
</svg>
