<?xml version="1.0" encoding="utf-8"?>
<!-- Generator: Adobe Illustrator 19.1.0, SVG Export Plug-In . SVG Version: 6.00 Build 0)  -->
<svg version="1.1" id="Layer_1" xmlns="http://www.w3.org/2000/svg" xmlns:xlink="http://www.w3.org/1999/xlink" x="0px" y="0px"
	 viewBox="0 0 612 792" style="enable-background:new 0 0 612 792;" xml:space="preserve">
<style type="text/css">
	.st0{fill:#ECB98F;stroke:#000000;stroke-width:6;stroke-miterlimit:10;}
	.st1{fill:#F7F5F5;stroke:#000000;stroke-miterlimit:10;}
	.st2{fill:#FFFFFF;}
	.st3{fill:#E87DAE;}
	.st4{fill:#99569F;}
	.st5{fill:#ECE5EE;}
	.st6{fill:#6B6CB0;stroke:#070606;stroke-width:5;stroke-miterlimit:10;}
	.st7{fill:none;stroke:#070606;stroke-width:5;stroke-miterlimit:10;}
	.st8{fill:#9C4F24;stroke:#070606;stroke-width:5;stroke-miterlimit:10;}
</style>
<path class="st0" d="M448.8,381.8c0,75.5-61.2,136.6-136.6,136.6s-136.6-61.2-136.6-136.6s67.1-235.5,142.5-235.5
	S448.8,306.3,448.8,381.8z"/>
<g>
	<path d="M280.4,306.3c0,6.5-5.8,15-12.9,15s-12.9-8.5-12.9-15s5.8-22.3,12.9-22.3S280.4,299.8,280.4,306.3z"/>
	<circle class="st1" cx="263.5" cy="302.7" r="6"/>
	<circle class="st2" cx="266.5" cy="312.3" r="3"/>
</g>
<g>
	<path d="M373.7,306.3c0,6.5-5.8,15-12.9,15s-12.9-8.5-12.9-15s5.8-22.3,12.9-22.3S373.7,299.8,373.7,306.3z"/>
	<circle class="st1" cx="356.9" cy="302.7" r="6"/>
	<circle class="st2" cx="359.9" cy="312.3" r="3"/>
</g>
<path class="st3" d="M347.9,373c0,14.2-13.6,25.7-30.3,25.7c-16.8,0-30.3-11.5-30.3-25.7s9.9-8.3,26.7-8.3
	C330.6,364.7,347.9,358.8,347.9,373z"/>
<path class="st4" d="M292.7,437.8c0,13.1-18.7,23.6-31.3,23.6c-12.6,0,2.3-10.6,2.3-23.6s-14.8-23.6-2.3-23.6
	C274,414.2,292.7,424.8,292.7,437.8z"/>
<path class="st4" d="M342.9,437.2c-0.4-13,18.1-24.1,30.6-24.5s-2,10.6-1.6,23.7s15.5,23.2,2.9,23.6
	C362.2,460.3,343.2,450.3,342.9,437.2z"/>
<ellipse transform="matrix(0.6709 -0.7416 0.7416 0.6709 -236.5676 144.0549)" class="st5" cx="44" cy="338.5" rx="4.7" ry="4.3"/>
<g>
	<ellipse class="st4" cx="317.5" cy="440.2" rx="26.3" ry="24.8"/>
	<ellipse class="st5" cx="310.3" cy="423.5" rx="3.9" ry="4.2"/>
	<ellipse class="st5" cx="309.6" cy="439.1" rx="3.3" ry="3.3"/>
	<ellipse class="st5" cx="315.9" cy="449.4" rx="3.3" ry="3.3"/>
	<ellipse class="st5" cx="320.5" cy="436.7" rx="4.7" ry="4.3"/>
	<ellipse class="st5" cx="332.2" cy="431.5" rx="3.7" ry="3.5"/>
	<ellipse class="st5" cx="330.1" cy="439.5" rx="3.3" ry="2.8"/>
	<ellipse class="st5" cx="334.4" cy="449.4" rx="3.9" ry="4.3"/>
	<ellipse class="st5" cx="324.5" cy="456" rx="4" ry="3.3"/>
	<ellipse class="st5" cx="312.9" cy="459.7" rx="4.7" ry="4.3"/>
	<ellipse class="st5" cx="325.2" cy="423.7" rx="4.7" ry="4.3"/>
	<ellipse class="st5" cx="301.7" cy="449.4" rx="4.7" ry="4.3"/>
	<ellipse class="st5" cx="299.3" cy="433.7" rx="4.7" ry="4.3"/>
</g>
<path class="st6" d="M96.1,358.3c-11.2,4.9-20.8,13.3-27.1,23.7c-0.6,0.9-1.2,2-2.2,2.4c-0.8,0.3-1.8,0.1-2.7-0.1
	c-2.9-0.7-5.7-1.3-8.6-2c-1.3-0.3-2.7-0.7-3.3-1.8c-0.4-0.6-0.5-1.3-0.5-2c-1-11.7,8.8-23.4,20.6-24.3c-12.8,2.1-26.9,3.7-39.6,0.7
	c-1.8-0.4-3.6-0.9-5-2c-5.2-3.8-2.4-13,3.5-15.7s12.7-0.9,18.8,1.4c6,2.3,12.3,5,18.7,4.1c-14.3-0.6-29.3-6.5-40-16
	c0.1-5.2,1-11.6,5.7-13.7c1.7-0.7,3.6-0.8,5.4-0.7c12.6,0.5,24.9,5.8,33.9,14.6c-9.4,1.1-19.3-3.7-25.7-10.8c-3-3.3-5.2-7.5-5.3-12
	c-0.1-4.5,2.4-9.1,6.5-10.7c2.4-0.9,5.1-0.8,7.6-0.2c9.6,2.2,16.6,10.1,22.9,17.6c-3.8-6.1-2.6-11.3-1.4-18.4
	c5.5,0.1,12,0.7,14.9,5.4c1,1.6,1.4,3.5,1.8,5.3c0.9,4.3,1.8,8.6,2.7,12.9c5-0.2,10.2,5.8,11.3,10.7c0.3,1.4,0.1,2.9-0.1,4.3
	c-1.7,10.6-3.8,21.9-11.2,29.7c3,2.4,8.4,7.8,11.4,10.2c2.2,1.8,4.8,3.6,7.6,3.1c3.4-0.6,5.2-4.3,6.5-7.5c3.4-8.8,6.8-17.9,5.8-27.3
	c-1-9.3-8.2-18.7-17.6-18.9c0,3.3-1.6,6.5-4.3,8.6"/>
<path class="st6" d="M533.2,436.8c9.5,7.7,21.4,12.3,33.6,13c1.1,0.1,2.3,0.1,3.1,0.9c0.7,0.6,0.9,1.5,1.2,2.4
	c0.7,2.8,1.5,5.7,2.2,8.5c0.3,1.3,0.6,2.7,0,3.8c-0.4,0.6-0.9,1-1.5,1.4c-9.9,6.4-24.8,3.1-31.1-6.9c7.8,10.4,15.8,22.1,19,34.7
	c0.5,1.8,0.9,3.6,0.6,5.4c-1,6.4-10.4,8.1-15.5,4.2c-5.1-4-6.7-10.9-7.5-17.3c-0.8-6.4-1.3-13.2-5.1-18.4c6.1,12.9,7.8,29,4.4,42.9
	c-4.7,2.3-10.7,4.5-14.8,1.3c-1.4-1.1-2.3-2.8-3.1-4.5c-5.4-11.3-6.5-24.7-2.8-36.8c5.4,7.9,5.7,18.8,2.4,27.7
	c-1.6,4.2-4.2,8.1-8.1,10.3s-9.2,2.1-12.6-0.8c-1.9-1.7-3.1-4.1-3.7-6.6c-2.5-9.5,1.2-19.4,4.9-28.5c-3.6,6.2-8.8,7.6-15.6,9.8
	c-2.5-4.9-5-11-2.1-15.7c1-1.6,2.4-2.9,3.9-4.1c3.4-2.8,6.8-5.6,10.1-8.4c-2.5-4.4,0.4-11.7,4.2-15c1.1-0.9,2.5-1.4,3.9-1.9
	c10.2-3.4,21.2-6.8,31.5-3.9c0.7-3.8,3-11,3.7-14.8c0.5-2.8-8.7-8.2-10.4-10.4c-2.1-2.8,3.5-0.4,0,0c-9.3,1.1-19.1,2.3-26.8,7.6
	c-7.8,5.3-12.8,15.9-8.6,24.3c2.9-1.5,6.6-1.6,9.6-0.2"/>
<path class="st7" d="M114.3,367.7c16.1,19.2,36.9,34.3,60.2,43.6"/>
<path class="st7" d="M129.1,356.5c14.8,1.5,29.4,11.8,43.3,6.7"/>
<path class="st7" d="M449.9,372.4c23.1,5.2,43,22.8,51,45"/>
<g>
	<path class="st7" d="M238.4,548.5"/>
	<path class="st7" d="M256.3,474.2"/>
	<path class="st7" d="M264.3,548.6"/>
	<path class="st7" d="M274.6,486.2"/>
	<path class="st8" d="M273.3,583.8c0.2,11.7-2.6,22.9-6.9,33.8c-28,1.5-55.6,0.3-83.6-2c-1.4-12.9-2-28,7.7-36.7
		c11.1-9.9,20.5-1.8,31.2,2.4c10.1,3.9,21.1,2.5,31.9,2.5c7.9,0,16-0.1,23.1-3.5c3.5-1.7,6.7-4.3,8.5-7.8c1.8-3.5,2-7.6,2-11.5
		c0-5.5-1.3-12-6.4-14c-1.7-0.7-3.6-0.7-5.4-0.7c-6.6,0-13.3,0-19.9-0.1c-4.3,0-8.5,0-12.7,0.8c-8.1,1.6-16.2,6.3-24,3.5
		c-3.1,7.9-2.1,21.9,0.1,30.1"/>
</g>
<g>
	<path class="st7" d="M399.7,547.7"/>
	<path class="st7" d="M373.8,475"/>
	<path class="st7" d="M373.8,547.7"/>
	<path class="st7" d="M363.5,480.4"/>
	<path class="st8" d="M364.8,583c-0.2,11.7,2.6,22.9,6.9,33.8c28,1.5,55.6,0.3,83.6-2c1.4-12.9,2-28-7.7-36.7
		c-11.1-9.9-20.5-1.8-31.2,2.4c-10.1,3.9-21.1,2.5-31.9,2.5c-7.9,0-16-0.1-23.1-3.5c-3.5-1.7-6.7-4.3-8.5-7.8c-1.8-3.5-2-7.6-2-11.5
		c0-5.5,1.3-12,6.4-14c1.7-0.7,3.6-0.7,5.4-0.7c6.6,0,13.3,0,19.9-0.1c4.3,0,8.5,0,12.7,0.8c8.1,1.6,16.2,6.3,24,3.5
		c3.1,7.9,2.1,21.9-0.1,30.1"/>
</g>
<path class="st7" d="M442.9,329c7.5-1.9,14.3,4.5,19.4,10.3c6.7,7.7,13.5,15.3,20.2,23c2.8,3.2,5.7,6.5,8.5,9.7
	c10.1,11.6,19.9,23.4,29.4,35.4"/>
<path class="st7" d="M249.3,507.2c-6.8-0.4-13.7-0.8-20.5-1.2c-4.3-0.3-8.9-0.4-12.5,1.9c-5.1,3.4-6,10.9-3.6,16.5
	c2.5,5.6,7.5,9.6,12.6,13c5.1,3.4,10.5,6.6,14.4,11.3"/>
<path class="st7" d="M282.2,517.9c-4.8,1-9.7,0.2-14.5-0.2s-10-0.2-14.1,2.5s-6.4,8.5-3.7,12.6c7,1.6,13.3,6.2,16.9,12.4"/>
<path class="st7" d="M369.5,505.9c6.8-0.4,21.5,0.5,28.4,0.1c4.3-0.3,8.9-0.4,12.5,1.9c5.1,3.4,6,10.9,3.6,16.5
	c-2.5,5.6-7.5,9.6-12.6,13c-5.1,3.4-10.5,6.6-14.4,11.3"/>
<path class="st7" d="M344.4,517.9c4.8,1,9.7,0.2,14.5-0.2s10-0.2,14.1,2.5s6.4,8.5,3.7,12.6c-7,1.6-13.3,6.2-16.9,12.4"/>
</svg>
