<?xml version="1.0" encoding="utf-8"?>
<!-- Generator: Adobe Illustrator 19.1.0, SVG Export Plug-In . SVG Version: 6.00 Build 0)  -->
<svg version="1.1" id="Layer_1" xmlns="http://www.w3.org/2000/svg" xmlns:xlink="http://www.w3.org/1999/xlink" x="0px" y="0px"
	 viewBox="0 0 612 792" style="enable-background:new 0 0 612 792;" xml:space="preserve">
<style type="text/css">
	.st0{fill:#ECB98F;stroke:#000000;stroke-width:6;stroke-miterlimit:10;}
	.st1{fill:#F7F5F5;stroke:#000000;stroke-miterlimit:10;}
	.st2{fill:#FFFFFF;}
	.st3{fill:#E87DAE;}
	.st4{fill:#99569F;}
	.st5{fill:#ECE5EE;}
	.st6{fill:#6B6CB0;stroke:#070606;stroke-width:5;stroke-miterlimit:10;}
	.st7{fill:none;stroke:#070606;stroke-width:5;stroke-miterlimit:10;}
	.st8{fill:#9C4F24;stroke:#070606;stroke-width:5;stroke-miterlimit:10;}
</style>
<path class="st0" d="M498,364.7c0,75.5-61.2,136.6-136.6,136.6s-136.6-61.2-136.6-136.6s67.1-235.5,142.5-235.5S498,289.2,498,364.7
	z"/>
<g>
	<path d="M280.4,306.3c0,6.5-5.8,15-12.9,15s-12.9-8.5-12.9-15s5.8-22.3,12.9-22.3S280.4,299.8,280.4,306.3z"/>
	<circle class="st1" cx="263.5" cy="302.7" r="6"/>
	<circle class="st2" cx="266.5" cy="312.3" r="3"/>
</g>
<g>
	<path d="M373.7,306.3c0,6.5-5.8,15-12.9,15s-12.9-8.5-12.9-15s5.8-22.3,12.9-22.3S373.7,299.8,373.7,306.3z"/>
	<circle class="st1" cx="356.9" cy="302.7" r="6"/>
	<circle class="st2" cx="359.9" cy="312.3" r="3"/>
</g>
<path class="st3" d="M347.9,373c0,14.2-13.6,25.7-30.3,25.7c-16.8,0-30.3-11.5-30.3-25.7s9.9-8.3,26.7-8.3
	C330.6,364.7,347.9,358.8,347.9,373z"/>
<path class="st4" d="M292.7,437.8c0,13.1-18.7,23.6-31.3,23.6c-12.6,0,2.3-10.6,2.3-23.6s-14.8-23.6-2.3-23.6
	C274,414.2,292.7,424.8,292.7,437.8z"/>
<path class="st4" d="M342.9,437.2c-0.4-13,18.1-24.1,30.6-24.5s-2,10.6-1.6,23.7s15.5,23.2,2.9,23.6
	C362.2,460.3,343.2,450.3,342.9,437.2z"/>
<ellipse transform="matrix(-0.4054 -0.9141 0.9141 -0.4054 -197.3782 875.4152)" class="st5" cx="186" cy="501.9" rx="4.7" ry="4.3"/>
<g>
	<ellipse class="st4" cx="317.5" cy="440.2" rx="26.3" ry="24.8"/>
	<ellipse class="st5" cx="310.3" cy="423.5" rx="3.9" ry="4.2"/>
	<ellipse class="st5" cx="309.6" cy="439.1" rx="3.3" ry="3.3"/>
	<ellipse class="st5" cx="315.9" cy="449.4" rx="3.3" ry="3.3"/>
	<ellipse class="st5" cx="320.5" cy="436.7" rx="4.7" ry="4.3"/>
	<ellipse class="st5" cx="332.2" cy="431.5" rx="3.7" ry="3.5"/>
	<ellipse class="st5" cx="330.1" cy="439.5" rx="3.3" ry="2.8"/>
	<ellipse class="st5" cx="334.4" cy="449.4" rx="3.9" ry="4.3"/>
	<ellipse class="st5" cx="324.5" cy="456" rx="4" ry="3.3"/>
	<ellipse class="st5" cx="312.9" cy="459.7" rx="4.7" ry="4.3"/>
	<ellipse class="st5" cx="325.2" cy="423.7" rx="4.7" ry="4.3"/>
	<ellipse class="st5" cx="301.7" cy="449.4" rx="4.7" ry="4.3"/>
	<ellipse class="st5" cx="299.3" cy="433.7" rx="4.7" ry="4.3"/>
</g>
<path class="st6" d="M201.7,431c-0.1,12.2,3.7,24.4,10.7,34.4c0.6,0.9,1.3,1.9,1.3,3c-0.1,0.9-0.6,1.7-1.2,2.4
	c-1.8,2.3-3.5,4.7-5.3,7c-0.8,1-1.7,2.2-3,2.3c-0.7,0.1-1.4-0.1-2.1-0.3c-11.1-3.8-17.8-17.5-13.9-28.6
	c-3.3,12.6-7.6,26.1-15.4,36.4c-1.1,1.4-2.3,2.9-3.8,3.8c-5.6,3.2-12.8-3.1-12.9-9.6s4.4-12,8.9-16.6c4.5-4.6,9.6-9.2,11.3-15.4
	c-6.3,12.8-17.9,24.1-30.9,30.1c-4.7-2.2-10.2-5.6-10.2-10.8c0-1.8,0.7-3.6,1.5-5.2c5.5-11.3,15.4-20.4,27.1-25.1
	c-2.8,9.1-11.2,16.2-20.3,19.1c-4.3,1.4-9,1.7-13.1,0c-4.1-1.7-7.4-5.9-7.2-10.3c0.1-2.6,1.3-5,2.9-7c5.9-7.8,16-11.1,25.4-13.8
	c-7.1,1-11.4-2.2-17.4-6.2c2.3-5,5.5-10.7,11-11.4c1.9-0.2,3.8,0.1,5.6,0.5c4.3,0.9,8.6,1.8,12.9,2.7c1.9-4.7,9.4-6.9,14.4-6
	c1.4,0.3,2.7,1.1,3.9,1.9c9,5.9,18.5,12.4,22.6,22.3c3.4-1.8,10.5-4.5,13.9-6.3c2.5-1.3,5.3-2.9,5.9-5.7c0.9-3.4-1.8-6.5-4.3-9
	c-6.6-6.6-13.6-13.5-22.6-16.3c-9-2.8-20.4-0.1-24.4,8.4c3,1.4,5.3,4.2,6.1,7.4"/>
<path class="st6" d="M533.2,436.8c9.5,7.7,21.4,12.3,33.6,13c1.1,0.1,2.3,0.1,3.1,0.9c0.7,0.6,0.9,1.5,1.2,2.4
	c0.7,2.8,1.5,5.7,2.2,8.5c0.3,1.3,0.6,2.7,0,3.8c-0.4,0.6-0.9,1-1.5,1.4c-9.9,6.4-24.8,3.1-31.1-6.9c7.8,10.4,15.8,22.1,19,34.7
	c0.5,1.8,0.9,3.6,0.6,5.4c-1,6.4-10.4,8.1-15.5,4.2c-5.1-4-6.7-10.9-7.5-17.3c-0.8-6.4-1.3-13.2-5.1-18.4c6.1,12.9,7.8,29,4.4,42.9
	c-4.7,2.3-10.7,4.5-14.8,1.3c-1.4-1.1-2.3-2.8-3.1-4.5c-5.4-11.3-6.5-24.7-2.8-36.8c5.4,7.9,5.7,18.8,2.4,27.7
	c-1.6,4.2-4.2,8.1-8.1,10.3s-9.2,2.1-12.6-0.8c-1.9-1.7-3.1-4.1-3.7-6.6c-2.5-9.5,1.2-19.4,4.9-28.5c-3.6,6.2-8.8,7.6-15.6,9.8
	c-2.5-4.9-5-11-2.1-15.7c1-1.6,2.4-2.9,3.9-4.1c3.4-2.8,6.8-5.6,10.1-8.4c-2.5-4.4,0.4-11.7,4.2-15c1.1-0.9,2.5-1.4,3.9-1.9
	c10.2-3.4,21.2-6.8,31.5-3.9c0.7-3.8,3-11,3.7-14.8c0.5-2.8-8.7-8.2-10.4-10.4c-2.1-2.8,3.5-0.4,0,0c-9.3,1.1-19.1,2.3-26.8,7.6
	c-7.8,5.3-12.8,15.9-8.6,24.3c2.9-1.5,6.6-1.6,9.6-0.2"/>
<path class="st7" d="M449.9,372.4c23.1,5.2,43,22.8,51,45"/>
<g>
	<path class="st7" d="M296.3,484.8c-14.2,18.9-20.8,50.8-18,74.3"/>
	<path class="st7" d="M314.5,496.8c-7.1,20-10.6,41.2-10.3,62.4"/>
	<path class="st8" d="M313.2,594.4c0.2,11.7-2.6,22.9-6.9,33.8c-28,1.5-55.6,0.3-83.6-2c-1.4-12.9-2-28,7.7-36.7
		c11.1-9.9,20.5-1.8,31.2,2.4c10.1,3.9,21.1,2.5,31.9,2.5c7.9,0,16-0.1,23.1-3.5c3.5-1.7,6.7-4.3,8.5-7.8c1.8-3.5,2-7.6,2-11.5
		c0-5.5-1.3-12-6.4-14c-1.7-0.7-3.6-0.7-5.4-0.7c-6.6,0-13.3,0-19.9-0.1c-4.3,0-8.5,0-12.7,0.8c-8.1,1.6-16.2,6.3-24,3.5
		c-3.1,7.9-2.1,21.9,0.1,30.1"/>
</g>
<g>
	<path class="st7" d="M396.6,496.8c9.7,21.6,34.3,55.9,56.2,64.8"/>
	<path class="st7" d="M411.4,497.3c14,15.9,35.2,31.6,53.9,41.6"/>
	<path class="st8" d="M500.5,548.1c10.4,5.5,18.8,13.3,26.2,22.4c-12.3,25.2-26.6,48.8-42.2,72.2c-12-5-25.5-11.8-28.4-24.5
		c-3.3-14.5,8.4-18.8,17.2-26.1c8.3-6.9,12.5-17.3,17.7-26.7c3.8-6.9,7.7-14.1,8.1-21.9c0.2-3.9-0.5-8-2.7-11.2
		c-2.2-3.3-5.7-5.5-9.1-7.3c-4.8-2.6-11.2-4.7-15.4-1.2c-1.4,1.2-2.3,2.8-3.2,4.4c-3.2,5.8-6.5,11.6-9.7,17.4
		c-2.1,3.7-4.2,7.5-5.5,11.5c-2.5,7.8-2.4,17.2-8.5,22.7c5.4,6.6,18.2,12.4,26.4,14.5"/>
</g>
<path class="st7" d="M442.9,329c7.5-1.9,14.3,4.5,19.4,10.3c6.7,7.7,13.5,15.3,20.2,23c2.8,3.2,5.7,6.5,8.5,9.7
	c10.1,11.6,19.9,23.4,29.4,35.4"/>
<path class="st7" d="M201.2,392.2c0.8-8.4,17.9-5.9,19-14.2"/>
<path class="st7" d="M216.4,406.2c3.1,0,6.3,0,9.4,0"/>
</svg>
