<?xml version="1.0" encoding="utf-8"?>
<!-- Generator: Adobe Illustrator 19.1.0, SVG Export Plug-In . SVG Version: 6.00 Build 0)  -->
<svg version="1.1" id="Layer_1" xmlns="http://www.w3.org/2000/svg" xmlns:xlink="http://www.w3.org/1999/xlink" x="0px" y="0px"
	 viewBox="0 0 612 792" style="enable-background:new 0 0 612 792;" xml:space="preserve">
<style type="text/css">
	.st0{fill:#ECB98F;stroke:#000000;stroke-width:6;stroke-miterlimit:10;}
	.st1{fill:#F7F5F5;stroke:#000000;stroke-miterlimit:10;}
	.st2{fill:#FFFFFF;}
	.st3{fill:#E87DAE;}
	.st4{fill:#99569F;}
	.st5{fill:#ECE5EE;}
	.st6{fill:#6B6CB0;stroke:#070606;stroke-width:5;stroke-miterlimit:10;}
	.st7{fill:none;stroke:#070606;stroke-width:5;stroke-miterlimit:10;}
	.st8{fill:#9C4F24;stroke:#070606;stroke-width:5;stroke-miterlimit:10;}
</style>
<path class="st0" d="M456,374.7c0,75.5-61.2,136.6-136.6,136.6s-136.6-61.2-136.6-136.6s67.1-235.5,142.5-235.5S456,299.2,456,374.7
	z"/>
<g>
	<path d="M238.4,316.3c0,6.5-5.8,15-12.9,15s-12.9-8.5-12.9-15s5.8-22.3,12.9-22.3C232.6,294,238.4,309.8,238.4,316.3z"/>
	<circle class="st1" cx="221.5" cy="312.7" r="6"/>
	<circle class="st2" cx="224.5" cy="322.3" r="3"/>
</g>
<g>
	<path d="M331.7,316.3c0,6.5-5.8,15-12.9,15s-12.9-8.5-12.9-15s5.8-22.3,12.9-22.3S331.7,309.8,331.7,316.3z"/>
	<circle class="st1" cx="314.9" cy="312.7" r="6"/>
	<circle class="st2" cx="317.9" cy="322.3" r="3"/>
</g>
<path class="st3" d="M305.9,383c0,14.2-13.6,25.7-30.3,25.7c-16.8,0-30.3-11.5-30.3-25.7s9.9-8.3,26.7-8.3
	C288.6,374.7,305.9,368.8,305.9,383z"/>
<path class="st4" d="M250.7,447.8c0,13.1-18.7,23.6-31.3,23.6c-12.6,0,2.3-10.6,2.3-23.6s-14.8-23.6-2.3-23.6
	C232,424.2,250.7,434.8,250.7,447.8z"/>
<path class="st4" d="M300.9,447.2c-0.4-13,18.1-24.1,30.6-24.5s-2,10.6-1.6,23.7s15.5,23.2,2.9,23.6
	C320.2,470.3,301.2,460.3,300.9,447.2z"/>
<ellipse transform="matrix(-0.4054 -0.9141 0.9141 -0.4054 -265.5472 851.0759)" class="st5" cx="144" cy="511.9" rx="4.7" ry="4.3"/>
<g>
	<ellipse class="st4" cx="275.5" cy="450.2" rx="26.3" ry="24.8"/>
	<ellipse class="st5" cx="268.3" cy="433.5" rx="3.9" ry="4.2"/>
	<ellipse class="st5" cx="267.6" cy="449.1" rx="3.3" ry="3.3"/>
	<ellipse class="st5" cx="273.9" cy="459.4" rx="3.3" ry="3.3"/>
	<ellipse class="st5" cx="278.5" cy="446.7" rx="4.7" ry="4.3"/>
	<ellipse class="st5" cx="290.2" cy="441.5" rx="3.7" ry="3.5"/>
	<ellipse class="st5" cx="288.1" cy="449.5" rx="3.3" ry="2.8"/>
	<ellipse class="st5" cx="292.4" cy="459.4" rx="3.9" ry="4.3"/>
	<ellipse class="st5" cx="282.5" cy="466" rx="4" ry="3.3"/>
	<ellipse class="st5" cx="270.9" cy="469.7" rx="4.7" ry="4.3"/>
	<ellipse class="st5" cx="283.2" cy="433.7" rx="4.7" ry="4.3"/>
	<ellipse class="st5" cx="259.7" cy="459.4" rx="4.7" ry="4.3"/>
	<ellipse class="st5" cx="257.3" cy="443.7" rx="4.7" ry="4.3"/>
</g>
<path class="st6" d="M124,391.7c-12.1-1.6-24.7,0.7-35.4,6.4c-1,0.5-2,1.1-3.1,0.9c-0.9-0.2-1.6-0.8-2.2-1.5c-2.1-2-4.2-4.1-6.3-6.1
	c-0.9-0.9-1.9-1.9-2-3.2c0-0.7,0.3-1.4,0.6-2c5.2-10.6,19.6-15.5,30.1-10.2c-12.1-4.8-25-10.7-34.3-19.7c-1.3-1.3-2.6-2.6-3.3-4.3
	c-2.5-6,4.7-12.3,11.1-11.6c6.4,0.7,11.4,5.8,15.4,10.9s8,10.6,13.9,13.1c-11.9-7.9-21.8-20.7-26.1-34.3c2.8-4.4,6.8-9.4,12-8.8
	c1.8,0.2,3.5,1.2,5,2.2c10.5,6.9,18.4,17.8,21.5,29.9c-8.7-3.9-14.7-13.1-16.5-22.5c-0.8-4.4-0.6-9.1,1.6-13
	c2.2-3.9,6.7-6.6,11.1-5.8c2.5,0.4,4.8,1.9,6.6,3.7c7.1,6.8,9,17.2,10.6,26.9c-0.1-7.2,3.6-11,8.3-16.5c4.7,2.9,9.9,6.8,10,12.3
	c0,1.9-0.6,3.7-1.2,5.5c-1.4,4.1-2.9,8.3-4.3,12.4c4.4,2.5,5.7,10.2,4.2,15c-0.4,1.4-1.4,2.5-2.3,3.6c-7,8.2-14.5,16.8-24.9,19.7
	c1.4,3.6,3.2,11,4.5,14.6c1,2.6,2.3,5.6,4.9,6.6c3.2,1.3,6.7-1,9.4-3.1c7.4-5.8,15.1-11.9,19-20.4c3.9-8.5,2.6-20.2-5.3-25.2
	c-1.7,2.8-4.8,4.8-8.1,5.1"/>
<path class="st6" d="M491.2,446.8c9.5,7.7,21.4,12.3,33.6,13c1.1,0.1,2.3,0.1,3.1,0.9c0.7,0.6,0.9,1.5,1.2,2.4
	c0.7,2.8,1.5,5.7,2.2,8.5c0.3,1.3,0.6,2.7,0,3.8c-0.4,0.6-0.9,1-1.5,1.4c-9.9,6.4-24.8,3.1-31.1-6.9c7.8,10.4,15.8,22.1,19,34.7
	c0.5,1.8,0.9,3.6,0.6,5.4c-1,6.4-10.4,8.1-15.5,4.2c-5.1-4-6.7-10.9-7.5-17.3c-0.8-6.4-1.3-13.2-5.1-18.4c6.1,12.9,7.8,29,4.4,42.9
	c-4.7,2.3-10.7,4.5-14.8,1.3c-1.4-1.1-2.3-2.8-3.1-4.5c-5.4-11.3-6.5-24.7-2.8-36.8c5.4,7.9,5.7,18.8,2.4,27.7
	c-1.6,4.2-4.2,8.1-8.1,10.3c-3.9,2.2-9.2,2.1-12.6-0.8c-1.9-1.7-3.1-4.1-3.7-6.6c-2.5-9.5,1.2-19.4,4.9-28.5
	c-3.6,6.2-8.8,7.6-15.6,9.8c-2.5-4.9-5-11-2.1-15.7c1-1.6,2.4-2.9,3.9-4.1c3.4-2.8,6.8-5.6,10.1-8.4c-2.5-4.4,0.4-11.7,4.2-15
	c1.1-0.9,2.5-1.4,3.9-1.9c10.2-3.4,21.2-6.8,31.5-3.9c0.7-3.8,3-11,3.7-14.8c0.5-2.8-8.7-8.2-10.4-10.4c-2.1-2.8,3.5-0.4,0,0
	c-9.3,1.1-19.1,2.3-26.8,7.6c-7.8,5.3-12.8,15.9-8.6,24.3c2.9-1.5,6.6-1.6,9.6-0.2"/>
<path class="st7" d="M407.9,382.4c23.1,5.2,43,22.8,51,45"/>
<g>
	<path class="st7" d="M238.8,483.9c-23.2-4.5-54.8,3.4-74.8,16.1"/>
	<path class="st7" d="M266.2,500.6c-21.1,2.3-72,13.3-90.9,22.8"/>
	<path class="st8" d="M147.5,546.8c-10.4,5.3-21.7,7.6-33.4,8.5c-13.5-24.6-24.5-49.9-34.6-76.1c11-6.9,24.4-14,36.4-9
		c13.7,5.7,10.5,17.7,11.4,29.1c0.8,10.8,6.9,20.1,11.6,29.8c3.4,7.1,7,14.4,13.2,19.2c3.1,2.4,6.8,4.2,10.8,4.3
		c3.9,0.1,7.7-1.5,11.3-3.2c4.9-2.4,10.3-6.4,9.8-11.9c-0.1-1.8-0.9-3.5-1.7-5.2c-2.9-6-5.7-12-8.6-17.9c-1.8-3.8-3.7-7.7-6.2-11.1
		c-4.9-6.6-12.7-11.9-13.6-20.1c-8.5,0.6-20.7,7.7-27.1,13.2"/>
</g>
<g>
	<path class="st7" d="M354.6,494.7c0.9,23.6,1.5,74.1,18.4,90.7"/>
	<path class="st7" d="M368.1,500.8c7,20,11.5,52.1,25.1,68.4"/>
	<path class="st8" d="M422.4,590.9c7.5,9,12.4,19.4,15.8,30.6c-20.9,18.7-43.1,35.2-66.3,51c-9.2-9.2-19.2-20.6-17-33.4
		c2.4-14.7,14.8-14.2,25.8-17.7c10.3-3.2,18-11.3,26.4-18.1c6.1-4.9,12.4-10.1,15.7-17.2c1.7-3.6,2.5-7.6,1.7-11.4
		c-0.8-3.9-3.2-7.2-5.7-10.2c-3.5-4.2-8.6-8.5-13.8-6.9c-1.7,0.6-3.2,1.7-4.6,2.9c-5.2,4.1-10.3,8.3-15.5,12.4
		c-3.3,2.7-6.7,5.3-9.4,8.6c-5.3,6.3-8.7,15.1-16.5,17.8c2.5,8.1,12.1,18.4,19,23.4"/>
</g>
<path class="st7" d="M400.9,339c7.5-1.9,14.3,4.5,19.4,10.3c6.7,7.7,13.5,15.3,20.2,23c2.8,3.2,5.7,6.5,8.5,9.7
	c10.1,11.6,19.9,23.4,29.4,35.4"/>
<path class="st7" d="M159.2,402.2"/>
<path class="st7" d="M183.8,416.2"/>
<path class="st7" d="M142.9,412.7"/>
</svg>
