<?xml version="1.0" encoding="utf-8"?>
<!-- Generator: Adobe Illustrator 19.1.0, SVG Export Plug-In . SVG Version: 6.00 Build 0)  -->
<svg version="1.1" id="Layer_1" xmlns="http://www.w3.org/2000/svg" xmlns:xlink="http://www.w3.org/1999/xlink" x="0px" y="0px"
	 viewBox="-76.1 220.3 573.3 609.5" style="enable-background:new -76.1 220.3 573.3 609.5;" xml:space="preserve">
<style type="text/css">
	.st0{fill:#ECB98F;stroke:#000000;stroke-width:6;stroke-miterlimit:10;}
	.st1{fill:#99569F;}
	.st2{fill:#ECE5EE;}
	.st3{fill:#6B6CB0;stroke:#070606;stroke-width:5;stroke-miterlimit:10;}
	.st4{fill:none;stroke:#070606;stroke-width:5;stroke-miterlimit:10;}
	.st5{fill:#9C4F24;stroke:#070606;stroke-width:5;stroke-miterlimit:10;}
	.st6{fill:#86CDE2;}
	.st7{fill:none;stroke:#040000;stroke-width:6;stroke-miterlimit:10;}
	.st8{fill:none;stroke:#040000;stroke-width:4.2922;stroke-miterlimit:10;}
	.st9{fill:#EFE74B;stroke:#EA9344;stroke-width:4.2922;stroke-miterlimit:10;}
</style>
<path class="st0" d="M419,548.7c0,75.5-61.2,136.6-136.6,136.6s-136.6-61.2-136.6-136.6s67.1-235.5,142.5-235.5S419,473.2,419,548.7
	z"/>
<path class="st1" d="M213.7,621.8c0,13.1-18.7,23.6-31.3,23.6c-12.6,0,2.3-10.6,2.3-23.6s-14.8-23.6-2.3-23.6
	C195,598.2,213.7,608.8,213.7,621.8z"/>
<path class="st1" d="M263.9,621.2c-0.4-13,18.1-24.1,30.6-24.5c12.5-0.4-2,10.6-1.6,23.7c0.4,13.1,15.5,23.2,2.9,23.6
	C283.2,644.3,264.2,634.3,263.9,621.2z"/>
<ellipse transform="matrix(-0.9141 0.4054 -0.4054 -0.9141 482.9032 1269.5656)" class="st2" cx="107" cy="685.9" rx="4.3" ry="4.7"/>
<g>
	<ellipse class="st1" cx="238.5" cy="624.2" rx="26.3" ry="24.8"/>
	<ellipse class="st2" cx="231.3" cy="607.5" rx="3.9" ry="4.2"/>
	<ellipse class="st2" cx="230.6" cy="623.1" rx="3.3" ry="3.3"/>
	<ellipse class="st2" cx="236.9" cy="633.4" rx="3.3" ry="3.3"/>
	<ellipse class="st2" cx="241.5" cy="620.7" rx="4.7" ry="4.3"/>
	<ellipse class="st2" cx="253.2" cy="615.5" rx="3.7" ry="3.5"/>
	<ellipse class="st2" cx="251.1" cy="623.5" rx="3.3" ry="2.8"/>
	<ellipse class="st2" cx="255.4" cy="633.4" rx="3.9" ry="4.3"/>
	<ellipse class="st2" cx="245.5" cy="640" rx="4" ry="3.3"/>
	<ellipse class="st2" cx="233.9" cy="643.7" rx="4.7" ry="4.3"/>
	<ellipse class="st2" cx="246.2" cy="607.7" rx="4.7" ry="4.3"/>
	<ellipse class="st2" cx="222.7" cy="633.4" rx="4.7" ry="4.3"/>
	<ellipse class="st2" cx="220.3" cy="617.7" rx="4.7" ry="4.3"/>
</g>
<path class="st3" d="M122.7,615c-0.1,12.2,3.7,24.4,10.7,34.4c0.6,0.9,1.3,1.9,1.3,3c-0.1,0.9-0.6,1.7-1.2,2.4
	c-1.8,2.3-3.5,4.7-5.3,7c-0.8,1-1.7,2.2-3,2.3c-0.7,0.1-1.4-0.1-2.1-0.3c-11.1-3.8-17.8-17.5-13.9-28.6
	c-3.3,12.6-7.6,26.1-15.4,36.4c-1.1,1.4-2.3,2.9-3.8,3.8c-5.6,3.2-12.8-3.1-12.9-9.6s4.4-12,8.9-16.6c4.5-4.6,9.6-9.2,11.3-15.4
	c-6.3,12.8-17.9,24.1-30.9,30.1c-4.7-2.2-10.2-5.6-10.2-10.8c0-1.8,0.7-3.6,1.5-5.2c5.5-11.3,15.4-20.4,27.1-25.1
	c-2.8,9.1-11.2,16.2-20.3,19.1c-4.3,1.4-9,1.7-13.1,0c-4.1-1.7-7.4-5.9-7.2-10.3c0.1-2.6,1.3-5,2.9-7c5.9-7.8,16-11.1,25.4-13.8
	c-7.1,1-11.4-2.2-17.4-6.2c2.3-5,5.5-10.7,11-11.4c1.9-0.2,3.8,0.1,5.6,0.5c4.3,0.9,8.6,1.8,12.9,2.7c1.9-4.7,9.4-6.9,14.4-6
	c1.4,0.3,2.7,1.1,3.9,1.9c9,5.9,18.5,12.4,22.6,22.3c3.4-1.8,10.5-4.5,13.9-6.3c2.5-1.3,5.3-2.9,5.9-5.7c0.9-3.4-1.8-6.5-4.3-9
	c-6.6-6.6-13.6-13.5-22.6-16.3S98,577.2,94,585.7c3,1.4,5.3,4.2,6.1,7.4"/>
<path class="st3" d="M454.2,620.8c9.5,7.7,21.4,12.3,33.6,13c1.1,0.1,2.3,0.1,3.1,0.9c0.7,0.6,0.9,1.5,1.2,2.4
	c0.7,2.8,1.5,5.7,2.2,8.5c0.3,1.3,0.6,2.7,0,3.8c-0.4,0.6-0.9,1-1.5,1.4c-9.9,6.4-24.8,3.1-31.1-6.9c7.8,10.4,15.8,22.1,19,34.7
	c0.5,1.8,0.9,3.6,0.6,5.4c-1,6.4-10.4,8.1-15.5,4.2c-5.1-4-6.7-10.9-7.5-17.3c-0.8-6.4-1.3-13.2-5.1-18.4c6.1,12.9,7.8,29,4.4,42.9
	c-4.7,2.3-10.7,4.5-14.8,1.3c-1.4-1.1-2.3-2.8-3.1-4.5c-5.4-11.3-6.5-24.7-2.8-36.8c5.4,7.9,5.7,18.8,2.4,27.7
	c-1.6,4.2-4.2,8.1-8.1,10.3c-3.9,2.2-9.2,2.1-12.6-0.8c-1.9-1.7-3.1-4.1-3.7-6.6c-2.5-9.5,1.2-19.4,4.9-28.5
	c-3.6,6.2-8.8,7.6-15.6,9.8c-2.5-4.9-5-11-2.1-15.7c1-1.6,2.4-2.9,3.9-4.1c3.4-2.8,6.8-5.6,10.1-8.4c-2.5-4.4,0.4-11.7,4.2-15
	c1.1-0.9,2.5-1.4,3.9-1.9c10.2-3.4,21.2-6.8,31.5-3.9c0.7-3.8,3-11,3.7-14.8c0.5-2.8-8.7-8.2-10.4-10.4c-2.1-2.8,3.5-0.4,0,0
	c-9.3,1.1-19.1,2.3-26.8,7.6c-7.8,5.3-12.8,15.9-8.6,24.3c2.9-1.5,6.6-1.6,9.6-0.2"/>
<path class="st4" d="M370.9,556.4c23.1,5.2,43,22.8,51,45"/>
<g>
	<path class="st4" d="M217.3,668.8c-14.2,18.9-20.8,50.8-18,74.3"/>
	<path class="st4" d="M235.5,680.8c-7.1,20-10.6,41.2-10.3,62.4"/>
	<path class="st5" d="M234.2,778.4c0.2,11.7-2.6,22.9-6.9,33.8c-28,1.5-55.6,0.3-83.6-2c-1.4-12.9-2-28,7.7-36.7
		c11.1-9.9,20.5-1.8,31.2,2.4c10.1,3.9,21.1,2.5,31.9,2.5c7.9,0,16-0.1,23.1-3.5c3.5-1.7,6.7-4.3,8.5-7.8s2-7.6,2-11.5
		c0-5.5-1.3-12-6.4-14c-1.7-0.7-3.6-0.7-5.4-0.7c-6.6,0-13.3,0-19.9-0.1c-4.3,0-8.5,0-12.7,0.8c-8.1,1.6-16.2,6.3-24,3.5
		c-3.1,7.9-2.1,21.9,0.1,30.1"/>
</g>
<g>
	<path class="st4" d="M317.6,680.8c9.7,21.6,34.3,55.9,56.2,64.8"/>
	<path class="st4" d="M332.4,681.3c14,15.9,35.2,31.6,53.9,41.6"/>
	<path class="st5" d="M421.5,732.1c10.4,5.5,18.8,13.3,26.2,22.4c-12.3,25.2-26.6,48.8-42.2,72.2c-12-5-25.5-11.8-28.4-24.5
		c-3.3-14.5,8.4-18.8,17.2-26.1c8.3-6.9,12.5-17.3,17.7-26.7c3.8-6.9,7.7-14.1,8.1-21.9c0.2-3.9-0.5-8-2.7-11.2
		c-2.2-3.3-5.7-5.5-9.1-7.3c-4.8-2.6-11.2-4.7-15.4-1.2c-1.4,1.2-2.3,2.8-3.2,4.4c-3.2,5.8-6.5,11.6-9.7,17.4
		c-2.1,3.7-4.2,7.5-5.5,11.5c-2.5,7.8-2.4,17.2-8.5,22.7c5.4,6.6,18.2,12.4,26.4,14.5"/>
</g>
<path class="st4" d="M363.9,513c7.5-1.9,14.3,4.5,19.4,10.3c6.7,7.7,13.5,15.3,20.2,23c2.8,3.2,5.7,6.5,8.5,9.7
	c10.1,11.6,19.9,23.4,29.4,35.4"/>
<path class="st4" d="M122.2,576.2c0.8-8.4,17.9-5.9,19-14.2"/>
<path class="st4" d="M137.4,590.2c3.1,0,6.3,0,9.4,0"/>
<path class="st6" d="M358,381.1c0.5,2.4-1.8,5.4-4,5.4c-2.2,0-3.4-2.1-4-4.4c-0.4-1.4,2.9-7.2,2.7-10.2
	C352.4,368.1,356.3,372.5,358,381.1z"/>
<path class="st6" d="M340.9,374.7c0.9,4.8-3.7,10.8-8,10.8s-6.7-4.1-7.9-8.8c-0.7-2.9,5.8-14.4,5.3-20.3
	C329.7,348.6,337.5,357.4,340.9,374.7z"/>
<path class="st6" d="M346.6,404.6c0.7,3.1-2.5,6.9-5.6,6.9s-4.7-2.6-5.5-5.6c-0.5-1.9,4-9.2,3.7-13
	C338.8,387.8,344.2,393.5,346.6,404.6z"/>
<path class="st6" d="M323.5,392.9c0.7,3.2-2.8,7.3-6.1,7.3s-5.1-2.8-6-6c-0.5-2,4.4-9.8,4-13.8C315,375.2,320.9,381.2,323.5,392.9z"
	/>
<path class="st6" d="M370.6,404.9c0.8,3.3-3.1,7.6-6.8,7.6c-3.7,0-5.7-2.9-6.7-6.2c-0.6-2,4.9-10.1,4.5-14.3
	C361.1,386.5,367.7,392.8,370.6,404.9z"/>
<path class="st6" d="M330.4,415.1c0.7,2.4-2.6,5.4-5.6,5.4c-3,0-4.7-2.1-5.5-4.4c-0.5-1.4,4-7.2,3.7-10.2
	C322.6,402,328.1,406.4,330.4,415.1z"/>
<path class="st6" d="M358.3,424c0.5,2.6-2,5.9-4.4,5.9c-2.4,0-3.6-2.2-4.3-4.8c-0.4-1.6,3.1-7.9,2.9-11.1
	C352.3,409.8,356.5,414.6,358.3,424z"/>
<path class="st6" d="M322.9,354.1c0.6,3.3-2.5,7.4-5.5,7.4s-4.6-2.8-5.4-6.1c-0.5-2,4-9.9,3.7-14
	C315.2,336.1,320.6,342.2,322.9,354.1z"/>
<path class="st7" d="M185,474.2c6.5-1.6,12.9-3.2,19.4-4.9c2.7-0.7,5.6-1.3,8.1,0c1.5,0.8,2.5,2.2,3.4,3.6
	c3.8,5.9,6.8,12.6,6.6,19.6c-0.4,12.6-11.8,23-24.2,25.3c-5.2,0.9-10.9,0.6-15.3-2.3c-4.4-2.9-7-8.9-4.9-13.8c2.1-4.9,7.8-7,13-8.2
	c4-0.9,8.4-1.6,11.9,0.5c3.5,2.1,4.6,8,1,10c-3.1,1.7-8-0.2-9.8,2.8"/>
<path class="st7" d="M285.9,474.2c6.5-1.6,12.9-3.2,19.4-4.9c2.7-0.7,5.6-1.3,8.1,0c1.5,0.8,2.5,2.2,3.4,3.6
	c3.8,5.9,6.8,12.6,6.6,19.6c-0.4,12.6-11.8,23-24.2,25.3c-5.2,0.9-10.9,0.6-15.3-2.3c-4.4-2.9-7-8.9-4.9-13.8c2.1-4.9,7.8-7,13-8.2
	c4-0.9,8.4-1.6,11.9,0.5c3.5,2.1,4.6,8,1,10c-3.1,1.7-8-0.2-9.8,2.8"/>
<ellipse class="st8" cx="249.5" cy="562" rx="17.9" ry="21.1"/>
<ellipse class="st9" cx="58.2" cy="346.7" rx="79.2" ry="74.7"/>
<ellipse transform="matrix(0.7786 0.6275 -0.6275 0.7786 164.6676 77.146)" class="st9" cx="-27" cy="271.9" rx="23.5" ry="8.5"/>
<ellipse transform="matrix(-0.1351 -0.9908 0.9908 -0.1351 -200.6195 316.4414)" class="st9" cx="37.8" cy="245.8" rx="23.5" ry="8.5"/>
<ellipse transform="matrix(0.642 -0.7667 0.7667 0.642 -157.3574 174.5694)" class="st9" cx="108.2" cy="255.8" rx="23.5" ry="8.5"/>
<ellipse transform="matrix(0.8458 -0.5336 0.5336 0.8458 -136.2375 133.854)" class="st9" cx="163.4" cy="302.6" rx="23.5" ry="8.5"/>
<ellipse transform="matrix(0.7755 0.6313 -0.6313 0.7755 293.3449 -9.068117e-02)" class="st9" cx="146.8" cy="412.5" rx="23.5" ry="8.5"/>
<ellipse transform="matrix(0.2845 0.9587 -0.9587 0.2845 494.6856 227.6557)" class="st9" cx="94.8" cy="445.2" rx="23.5" ry="8.5"/>
<ellipse transform="matrix(0.3964 -0.9181 0.9181 0.3964 -391.3744 295.184)" class="st9" cx="28.8" cy="445.2" rx="23.5" ry="8.5"/>
<ellipse transform="matrix(0.757 -0.6534 0.6534 0.757 -280.4496 88.6685)" class="st9" cx="-21" cy="421.4" rx="23.5" ry="8.5"/>
<ellipse transform="matrix(0.9365 -0.3507 0.3507 0.9365 -135.751 7.4197)" class="st9" cx="-47.4" cy="378.5" rx="23.5" ry="8.5"/>
<ellipse transform="matrix(0.9875 0.1578 -0.1578 0.9875 60.0426 -22.2325)" class="st9" cx="170" cy="367" rx="23.5" ry="8.5"/>
<ellipse transform="matrix(1 8.242254e-03 -8.242254e-03 1 2.6814 0.4273)" class="st9" cx="-50.5" cy="325.5" rx="23.5" ry="8.5"/>
</svg>
