<?xml version="1.0" encoding="utf-8"?>
<!-- Generator: Adobe Illustrator 19.1.0, SVG Export Plug-In . SVG Version: 6.00 Build 0)  -->
<svg version="1.1" id="Layer_1" xmlns="http://www.w3.org/2000/svg" xmlns:xlink="http://www.w3.org/1999/xlink" x="0px" y="0px"
	 viewBox="-76.1 220.3 573.3 609.5" style="enable-background:new -76.1 220.3 573.3 609.5;" xml:space="preserve">
<style type="text/css">
	.st0{fill:#ECB98F;stroke:#000000;stroke-width:6;stroke-miterlimit:10;}
	.st1{fill:#99569F;}
	.st2{fill:#ECE5EE;}
	.st3{fill:#6B6CB0;stroke:#070606;stroke-width:5;stroke-miterlimit:10;}
	.st4{fill:none;stroke:#070606;stroke-width:5;stroke-miterlimit:10;}
	.st5{fill:#9C4F24;stroke:#070606;stroke-width:5;stroke-miterlimit:10;}
	.st6{fill:none;stroke:#070606;stroke-width:4.8922;stroke-miterlimit:10;}
	.st7{fill:#9C4F24;stroke:#070606;stroke-width:4.8922;stroke-miterlimit:10;}
	.st8{fill:#86CDE2;}
	.st9{fill:none;stroke:#040000;stroke-width:6;stroke-miterlimit:10;}
	.st10{fill:none;stroke:#040000;stroke-width:4.2922;stroke-miterlimit:10;}
	.st11{fill:#EFE74B;stroke:#EA9344;stroke-width:4.2922;stroke-miterlimit:10;}
</style>
<path class="st0" d="M419,548.7c0,75.5-61.2,136.6-136.6,136.6s-136.6-61.2-136.6-136.6s67.1-235.5,142.5-235.5S419,473.2,419,548.7
	z"/>
<path class="st1" d="M213.7,621.8c0,13.1-18.7,23.6-31.3,23.6c-12.6,0,2.3-10.6,2.3-23.6s-14.8-23.6-2.3-23.6
	C195,598.2,213.7,608.8,213.7,621.8z"/>
<path class="st1" d="M263.9,621.2c-0.4-13,18.1-24.1,30.6-24.5c12.5-0.4-2,10.6-1.6,23.7c0.4,13.1,15.5,23.2,2.9,23.6
	C283.2,644.3,264.2,634.3,263.9,621.2z"/>
<ellipse transform="matrix(-0.9141 0.4054 -0.4054 -0.9141 482.9032 1269.5656)" class="st2" cx="107" cy="685.9" rx="4.3" ry="4.7"/>
<g>
	<ellipse class="st1" cx="238.5" cy="624.2" rx="26.3" ry="24.8"/>
	<ellipse class="st2" cx="231.3" cy="607.5" rx="3.9" ry="4.2"/>
	<ellipse class="st2" cx="230.6" cy="623.1" rx="3.3" ry="3.3"/>
	<ellipse class="st2" cx="236.9" cy="633.4" rx="3.3" ry="3.3"/>
	<ellipse class="st2" cx="241.5" cy="620.7" rx="4.7" ry="4.3"/>
	<ellipse class="st2" cx="253.2" cy="615.5" rx="3.7" ry="3.5"/>
	<ellipse class="st2" cx="251.1" cy="623.5" rx="3.3" ry="2.8"/>
	<ellipse class="st2" cx="255.4" cy="633.4" rx="3.9" ry="4.3"/>
	<ellipse class="st2" cx="245.5" cy="640" rx="4" ry="3.3"/>
	<ellipse class="st2" cx="233.9" cy="643.7" rx="4.7" ry="4.3"/>
	<ellipse class="st2" cx="246.2" cy="607.7" rx="4.7" ry="4.3"/>
	<ellipse class="st2" cx="222.7" cy="633.4" rx="4.7" ry="4.3"/>
	<ellipse class="st2" cx="220.3" cy="617.7" rx="4.7" ry="4.3"/>
</g>
<path class="st3" d="M122.7,615c-0.1,12.2,3.7,24.4,10.7,34.4c0.6,0.9,1.3,1.9,1.3,3c-0.1,0.9-0.6,1.7-1.2,2.4
	c-1.8,2.3-3.5,4.7-5.3,7c-0.8,1-1.7,2.2-3,2.3c-0.7,0.1-1.4-0.1-2.1-0.3c-11.1-3.8-17.8-17.5-13.9-28.6
	c-3.3,12.6-7.6,26.1-15.4,36.4c-1.1,1.4-2.3,2.9-3.8,3.8c-5.6,3.2-12.8-3.1-12.9-9.6s4.4-12,8.9-16.6c4.5-4.6,9.6-9.2,11.3-15.4
	c-6.3,12.8-17.9,24.1-30.9,30.1c-4.7-2.2-10.2-5.6-10.2-10.8c0-1.8,0.7-3.6,1.5-5.2c5.5-11.3,15.4-20.4,27.1-25.1
	c-2.8,9.1-11.2,16.2-20.3,19.1c-4.3,1.4-9,1.7-13.1,0c-4.1-1.7-7.4-5.9-7.2-10.3c0.1-2.6,1.3-5,2.9-7c5.9-7.8,16-11.1,25.4-13.8
	c-7.1,1-11.4-2.2-17.4-6.2c2.3-5,5.5-10.7,11-11.4c1.9-0.2,3.8,0.1,5.6,0.5c4.3,0.9,8.6,1.8,12.9,2.7c1.9-4.7,9.4-6.9,14.4-6
	c1.4,0.3,2.7,1.1,3.9,1.9c9,5.9,18.5,12.4,22.6,22.3c3.4-1.8,10.5-4.5,13.9-6.3c2.5-1.3,5.3-2.9,5.9-5.7c0.9-3.4-1.8-6.5-4.3-9
	c-6.6-6.6-13.6-13.5-22.6-16.3S98,577.2,94,585.7c3,1.4,5.3,4.2,6.1,7.4"/>
<path class="st3" d="M427.8,446.1c-8,9.3-12.9,21-13.9,33.2c-0.1,1.1-0.2,2.3-1,3.1c-0.6,0.7-1.5,0.9-2.4,1.1
	c-2.8,0.6-5.7,1.3-8.6,2c-1.3,0.3-2.7,0.5-3.8-0.1c-0.6-0.4-1-0.9-1.4-1.5c-6.1-10.1-2.4-24.9,7.8-30.9c-10.6,7.5-22.5,15.2-35.2,18
	c-1.8,0.4-3.6,0.8-5.4,0.4c-6.4-1.2-7.8-10.6-3.8-15.6c4.1-5,11.1-6.4,17.5-7s13.2-0.9,18.5-4.6c-13.1,5.7-29.2,7-43,3.2
	c-2.2-4.8-4.2-10.8-0.9-14.8c1.1-1.4,2.9-2.2,4.6-3c11.4-5.1,24.9-5.8,36.9-1.8c-8,5.2-19,5.2-27.8,1.6c-4.2-1.7-8-4.4-10.1-8.4
	s-1.8-9.3,1.2-12.6c1.8-1.9,4.2-3,6.7-3.5c9.6-2.2,19.4,1.7,28.4,5.7c-6.1-3.8-7.3-9-9.4-15.9c5-2.4,11.1-4.7,15.8-1.7
	c1.6,1,2.8,2.5,4,4c2.7,3.5,5.4,7,8.1,10.3c4.5-2.4,11.7,0.7,14.9,4.6c0.9,1.1,1.3,2.5,1.8,4c3.1,10.3,6.2,21.4,3,31.6
	c3.8,0.8,10.9,3.3,14.7,4.1c2.8,0.6,8.4-8.5,10.7-10.1c2.9-2,0.3,3.5,0,0c-0.8-9.3-1.8-19.2-6.8-27c-5.1-7.9-15.5-13.2-24-9.3
	c1.4,2.9,1.4,6.6-0.1,9.6"/>
<g>
	<path class="st4" d="M267.4,688.6c10.2,21.3,51.8,60.2,74,68.6"/>
	<path class="st4" d="M290.7,686.6c14.5,15.5,43.7,38.1,62.7,47.6"/>
	<path class="st5" d="M367.3,726.8c10.5,5.2,19.1,12.9,26.8,21.7c-11.6,25.5-25.4,49.5-40.3,73.3c-12.1-4.7-25.8-11.1-29-23.8
		c-3.7-14.4,7.9-19,16.5-26.6c8.1-7.2,11.9-17.6,16.9-27.2c3.6-7,7.3-14.2,7.5-22.1c0.1-3.9-0.7-7.9-3-11.1
		c-2.3-3.2-5.8-5.3-9.3-7.1c-4.9-2.5-11.2-4.4-15.4-0.8c-1.4,1.2-2.3,2.9-3.1,4.5c-3,5.9-6.1,11.8-9.3,17.6c-2,3.8-3.9,7.5-5.1,11.6
		c-2.3,7.9-1.9,17.3-8,22.9c5.6,6.4,18.5,12,26.8,13.8"/>
</g>
<g>
	<path class="st6" d="M369.2,658.9c11.9,19.6,14.1,53.3,36.7,59.4"/>
	<path class="st6" d="M376.5,652.9c15.6,13.6,19.6,34.7,39.2,42.1"/>
	<path class="st7" d="M451.4,699.9c10.9,4.1,20,10.6,28.3,18.5c-9.3,25.5-20.8,49.8-33.6,74c-12.4-3.4-26.4-8.4-30.7-20.3
		c-4.9-13.5,6.2-19,14.1-27c7.4-7.6,10.4-18,14.5-27.6c3-7,6-14.4,5.6-21.9c-0.2-3.8-1.4-7.6-3.9-10.4c-2.5-2.9-6.2-4.6-9.8-6
		c-5-1.9-11.6-3.2-15.3,0.6c-1.2,1.3-2,2.9-2.7,4.6c-2.5,5.9-5.1,11.9-7.6,17.8c-1.7,3.8-3.3,7.7-4.2,11.6
		c-1.6,7.8-0.5,16.8-5.9,22.7c6.1,5.7,19.3,9.8,27.6,10.9"/>
</g>
<path class="st4" d="M122.2,576.2c0.8-8.4,17.9-5.9,19-14.2"/>
<path class="st4" d="M137.4,590.2c3.1,0,6.3,0,9.4,0"/>
<path class="st8" d="M358,381.1c0.5,2.4-1.8,5.4-4,5.4c-2.2,0-3.4-2.1-4-4.4c-0.4-1.4,2.9-7.2,2.7-10.2
	C352.4,368.1,356.3,372.5,358,381.1z"/>
<path class="st8" d="M340.9,374.7c0.9,4.8-3.7,10.8-8,10.8s-6.7-4.1-7.9-8.8c-0.7-2.9,5.8-14.4,5.3-20.3
	C329.7,348.6,337.5,357.4,340.9,374.7z"/>
<path class="st8" d="M346.6,404.6c0.7,3.1-2.5,6.9-5.6,6.9s-4.7-2.6-5.5-5.6c-0.5-1.9,4-9.2,3.7-13
	C338.8,387.8,344.2,393.5,346.6,404.6z"/>
<path class="st8" d="M323.5,392.9c0.7,3.2-2.8,7.3-6.1,7.3s-5.1-2.8-6-6c-0.5-2,4.4-9.8,4-13.8C315,375.2,320.9,381.2,323.5,392.9z"
	/>
<path class="st8" d="M370.6,404.9c0.8,3.3-3.1,7.6-6.8,7.6c-3.7,0-5.7-2.9-6.7-6.2c-0.6-2,4.9-10.1,4.5-14.3
	C361.1,386.5,367.7,392.8,370.6,404.9z"/>
<path class="st8" d="M330.4,415.1c0.7,2.4-2.6,5.4-5.6,5.4c-3,0-4.7-2.1-5.5-4.4c-0.5-1.4,4-7.2,3.7-10.2
	C322.6,402,328.1,406.4,330.4,415.1z"/>
<path class="st8" d="M358.3,424c0.5,2.6-2,5.9-4.4,5.9c-2.4,0-3.6-2.2-4.3-4.8c-0.4-1.6,3.1-7.9,2.9-11.1
	C352.3,409.8,356.5,414.6,358.3,424z"/>
<path class="st8" d="M322.9,354.1c0.6,3.3-2.5,7.4-5.5,7.4s-4.6-2.8-5.4-6.1c-0.5-2,4-9.9,3.7-14
	C315.2,336.1,320.6,342.2,322.9,354.1z"/>
<path class="st9" d="M185,474.2c6.5-1.6,12.9-3.2,19.4-4.9c2.7-0.7,5.6-1.3,8.1,0c1.5,0.8,2.5,2.2,3.4,3.6
	c3.8,5.9,6.8,12.6,6.6,19.6c-0.4,12.6-11.8,23-24.2,25.3c-5.2,0.9-10.9,0.6-15.3-2.3c-4.4-2.9-7-8.9-4.9-13.8c2.1-4.9,7.8-7,13-8.2
	c4-0.9,8.4-1.6,11.9,0.5c3.5,2.1,4.6,8,1,10c-3.1,1.7-8-0.2-9.8,2.8"/>
<path class="st9" d="M285.9,474.2c6.5-1.6,12.9-3.2,19.4-4.9c2.7-0.7,5.6-1.3,8.1,0c1.5,0.8,2.5,2.2,3.4,3.6
	c3.8,5.9,6.8,12.6,6.6,19.6c-0.4,12.6-11.8,23-24.2,25.3c-5.2,0.9-10.9,0.6-15.3-2.3c-4.4-2.9-7-8.9-4.9-13.8c2.1-4.9,7.8-7,13-8.2
	c4-0.9,8.4-1.6,11.9,0.5c3.5,2.1,4.6,8,1,10c-3.1,1.7-8-0.2-9.8,2.8"/>
<ellipse class="st10" cx="249.5" cy="562" rx="17.9" ry="21.1"/>
<ellipse class="st11" cx="58.2" cy="346.7" rx="79.2" ry="74.7"/>
<ellipse transform="matrix(0.7786 0.6275 -0.6275 0.7786 164.6676 77.146)" class="st11" cx="-27" cy="271.9" rx="23.5" ry="8.5"/>
<ellipse transform="matrix(-0.1351 -0.9908 0.9908 -0.1351 -200.6195 316.4414)" class="st11" cx="37.8" cy="245.8" rx="23.5" ry="8.5"/>
<ellipse transform="matrix(0.642 -0.7667 0.7667 0.642 -157.3574 174.5694)" class="st11" cx="108.2" cy="255.8" rx="23.5" ry="8.5"/>
<ellipse transform="matrix(0.8458 -0.5336 0.5336 0.8458 -136.2375 133.854)" class="st11" cx="163.4" cy="302.6" rx="23.5" ry="8.5"/>
<ellipse transform="matrix(0.7755 0.6313 -0.6313 0.7755 293.3449 -9.068117e-02)" class="st11" cx="146.8" cy="412.5" rx="23.5" ry="8.5"/>
<ellipse transform="matrix(0.2845 0.9587 -0.9587 0.2845 494.6856 227.6557)" class="st11" cx="94.8" cy="445.2" rx="23.5" ry="8.5"/>
<ellipse transform="matrix(0.3964 -0.9181 0.9181 0.3964 -391.3744 295.184)" class="st11" cx="28.8" cy="445.2" rx="23.5" ry="8.5"/>
<ellipse transform="matrix(0.757 -0.6534 0.6534 0.757 -280.4496 88.6685)" class="st11" cx="-21" cy="421.4" rx="23.5" ry="8.5"/>
<ellipse transform="matrix(0.9365 -0.3507 0.3507 0.9365 -135.751 7.4197)" class="st11" cx="-47.4" cy="378.5" rx="23.5" ry="8.5"/>
<ellipse transform="matrix(0.9875 0.1578 -0.1578 0.9875 60.0426 -22.2325)" class="st11" cx="170" cy="367" rx="23.5" ry="8.5"/>
<ellipse transform="matrix(1 8.242254e-03 -8.242254e-03 1 2.6814 0.4273)" class="st11" cx="-50.5" cy="325.5" rx="23.5" ry="8.5"/>
<path class="st4" d="M453.6,444.1c5.1,36-8,74.1-34.1,99.4"/>
<path class="st4" d="M449.2,412.2c8.7,0.3,16.3,7,20,14.9c3.7,7.9,4.3,16.9,4.4,25.6c0.4,26.4-3,53.1-12.3,77.7
	c-9.4,24.7-25,47.3-46.4,62.8"/>
</svg>
