<?xml version="1.0" encoding="utf-8"?>
<!-- Generator: Adobe Illustrator 19.1.0, SVG Export Plug-In . SVG Version: 6.00 Build 0)  -->
<svg version="1.1" id="Layer_1" xmlns="http://www.w3.org/2000/svg" xmlns:xlink="http://www.w3.org/1999/xlink" x="0px" y="0px"
	 viewBox="0 0 612 792" style="enable-background:new 0 0 612 792;" xml:space="preserve">
<style type="text/css">
	.st0{fill:#F8E3B8;stroke:#000000;stroke-width:6;stroke-miterlimit:10;}
	.st1{fill:#F8E3B8;stroke:#100F0F;stroke-width:6;stroke-miterlimit:10;}
	.st2{fill:none;stroke:#000000;stroke-width:4.46;stroke-miterlimit:10;}
	.st3{fill:#EAA037;}
	.st4{fill:none;stroke:#100F0F;stroke-width:6;stroke-miterlimit:10;}
	.st5{fill:#99569F;}
	.st6{fill:#ECE5EE;}
</style>
<path class="st0" d="M95.2,212.1c-19,1.7-36,53.5-37.6,58.8c-4.4,13.8-10.8,34.5-11.8,63.5c-1,30-1.6,50.6,11.8,70.6
	c14.2,21.1,35.9,29.2,45.9,32.9c22.9,8.5,42.5,6.9,54.1,5.9c24.5-2.2,41.8-10.3,60-18.8c24-11.2,40-23.4,44.7-27.1
	c19-14.8,35.3-25.5,32.9-31.8c-4.2-11.2-62.1,6.9-71.8-11.8c-3.3-6.4,3-9.7,0-20c-5.2-18-27.4-18.6-30.6-35.3
	c-1.7-9.2,3.8-15.2,0-18.8c-4.9-4.6-14.7,4.6-23.5,0c-7.6-3.9-11.2-16.2-8.2-24.7c2.9-8.4,11.4-11.4,10.6-12.9
	c-0.6-1.1-5.5-0.7-29.4,8.2c-20.5,7.7-28.7,11.8-30.6,9.4c-2.3-3,9-11.7,12.9-30.6c2.4-11.4-0.4-14.5-1.2-15.3
	c-1.3-1.2-3.2-2.1-16.5-2.4C102.7,212,97.2,211.9,95.2,212.1z"/>
<path class="st1" d="M336.8,315.5c-17.3-20.9-22.5-5.9-18.8,49.4c0.4,6.4,0.5,18,7.1,30.6c9.4,18,25.3,26.2,36.5,31.8
	c41.5,20.6,83.5,10.9,89.4,9.4c41-10.1,64.5-36.9,71.8-45.9c8.6-10.6,27.7-34.3,28.2-68.2c0.4-24.1-8.8-41-23.5-68.2
	c-12.1-22.3-26.1-39.7-30.6-37.6c-3.9,1.8,2,16.5-4.7,21.2c-0.9,0.6-4.7,3-20-3.5c-18.3-7.8-23.9-15.9-27.1-14.1
	c-7.8,4.3,17.9,57.3,8.2,63.5c-6.8,4.4-25.6-18.3-34.1-12.9c-7.9,5,1.5,29.2-5.9,32.9c-5.7,2.9-12.8-10.8-23.5-9.4
	c-12.3,1.6-12.5,20.6-27.1,24.7C351.5,322.2,343.4,323.4,336.8,315.5z"/>
<path class="st2" d="M33.6,552.6c0.6-30.1,64.5-52.3,155.7-83.9c2.4-0.8,24-8.3,53.6-15.3c25.5-6,38.5-9,55.6-8.7
	c8.9,0.2,20.7,1.3,49.5,9.8c36.8,10.9,43.3,16.8,81.9,30.5c42.4,15,63.6,22.5,78.8,22.9c13.4,0.3,29.4-1.3,47.5,8.7
	c5.9,3.3,21.5,11.8,22.2,22.9c1.5,22-56.5,43.3-69.7,47.9c-59.6,20.9-96.3,13.7-266.9,7.6c-27.6-1-55.3-4.8-82.9-3.3
	c-47.7,2.7-73.7,12.3-100.1-5.4C52.3,582,33.3,569.2,33.6,552.6z"/>
<ellipse class="st3" cx="295.4" cy="512.1" rx="87.6" ry="48.2"/>
<path class="st4" d="M102.2,342.9c-5.1-3.2-12.9-4.4-16.3,0.5c-2.4,3.4-1.3,8.5,1.8,11.2c3.1,2.7,7.8,3.2,11.7,2.1
	c1.6-0.5,3.2-1.2,4.3-2.5c1.6-1.9,2-4.6,2.2-7c0.5-4.8,0.6-10.4-3-13.7c-2.6-2.3-6.3-2.7-9.8-3c-6.6-0.5-14.4-0.5-18.5,4.7
	c-1.8,2.4-2.5,5.4-3,8.4c-0.8,5.2-0.9,11.1,2.4,15.2c4.9,6.2,14.3,5.6,22.1,4.5"/>
<path class="st4" d="M170.4,370c-4.8-0.9-10.3-0.8-14.1,2.3s-4,10.4,0.6,12.3c1.4,0.6,3.1,0.6,4.6,0.6c3.5,0,7.1-0.1,10.6-0.1
	c2.5,0,5.3-0.2,6.7-2.3c0.9-1.3,0.9-3,1-4.5c0-3.8,0.1-7.5,0.1-11.3c0-1.4,0-3-0.7-4.2c-1.3-2.1-4.1-2.5-6.5-2.6
	c-4.9-0.3-9.8-0.7-14.8-1c-2.4-0.2-4.9-0.3-6.9,0.9c-2.6,1.6-3.5,4.8-4.1,7.7c-1.4,7-1.8,14.3-1.4,21.4c0.1,2,0.4,4.1,1.4,5.7
	c2.7,4.2,8.9,3.6,13.8,2.6"/>
<path class="st4" d="M396.4,350.6c5.1,0.4,10.2,0.8,15.3,1.1c0.1-6.9-0.3-13.7-1.2-20.6c7.6-3.2,15.3,4.3,23.4,5.9
	c1,0.2,2,0.3,2.9-0.3c1-0.7,1.2-2,1.3-3.1c0.8-6.7,1.6-13.4,2.3-20.1c9.4-1.5,19.2-0.3,28,3.3c-0.1-5.2-0.1-10.4-0.2-15.5
	c6.7,0.4,13.4,1.2,20,2.5"/>
<g>
	<path class="st5" d="M464.9,390.6c7.9,10.4-0.4,30.1-10.4,37.8c-10,7.7-4.7-9.8-12.6-20.1s-26.2-9.7-16.2-17.4
		C435.7,383.2,457,380.2,464.9,390.6z"/>
	<path class="st5" d="M504.3,359.6c-8.2-10.1-0.4-30.1,9.4-38.1c9.8-7.9,4.9,9.6,13.2,19.8s26.4,9,16.7,16.9
		C533.8,366.1,512.6,369.7,504.3,359.6z"/>
	<g>
		
			<ellipse transform="matrix(0.7932 -0.609 0.609 0.7932 -129.2793 374.0193)" class="st5" cx="486" cy="377.3" rx="26.3" ry="24.8"/>
		
			<ellipse transform="matrix(0.7932 -0.609 0.609 0.7932 -127.217 362.5113)" class="st6" cx="470.1" cy="368.6" rx="3.9" ry="4.2"/>
		
			<ellipse transform="matrix(0.7932 -0.609 0.609 0.7932 -133.1403 370.6116)" class="st6" cx="479.1" cy="381.3" rx="3.3" ry="3.3"/>
		
			<ellipse transform="matrix(0.7932 -0.609 0.609 0.7932 -133.4511 378.3377)" class="st6" cx="490.3" cy="385.7" rx="3.3" ry="3.3"/>
		
			<ellipse transform="matrix(0.7932 -0.609 0.609 0.7932 -126.4319 373.229)" class="st6" cx="486.3" cy="372.8" rx="4.7" ry="4.3"/>
		
			<ellipse transform="matrix(0.7932 -0.609 0.609 0.7932 -118.3019 374.6254)" class="st6" cx="492.4" cy="361.5" rx="3.7" ry="3.5"/>
		
			<ellipse transform="matrix(0.7932 -0.609 0.609 0.7932 -122.3245 378.1725)" class="st6" cx="495.6" cy="369.2" rx="3.3" ry="2.8"/>
		<ellipse transform="matrix(0.7932 -0.609 0.609 0.7932 -123.5376 384.9561)" class="st6" cx="505" cy="374.4" rx="3.9" ry="4.3"/>
		<ellipse transform="matrix(0.7932 -0.609 0.609 0.7932 -131.1691 384.9579)" class="st6" cx="501.2" cy="385.6" rx="4" ry="3.3"/>
		
			<ellipse transform="matrix(0.7932 -0.609 0.609 0.7932 -138.7457 382.7936)" class="st6" cx="494.2" cy="395.7" rx="4.7" ry="4.3"/>
		
			<ellipse transform="matrix(0.7932 -0.609 0.609 0.7932 -119.2935 367.942)" class="st6" cx="482.1" cy="359.6" rx="4.7" ry="4.3"/>
		<ellipse transform="matrix(0.7932 -0.609 0.609 0.7932 -141.0483 373.2658)" class="st6" cx="479" cy="394.3" rx="4.7" ry="4.3"/>
		
			<ellipse transform="matrix(0.7932 -0.609 0.609 0.7932 -136.7019 364.0528)" class="st6" cx="467.7" cy="383.3" rx="4.7" ry="4.3"/>
	</g>
</g>
</svg>
